<svg width="26" height="38" viewBox="0 0 26 38" fill="none" xmlns="http://www.w3.org/2000/svg">
<g id="&#240;&#159;&#166;&#134; icon &#34;chevron double down&#34;">
<path id="Vector" d="M12.6381 25.4886L5.32807 17.074L0 23.2071L7.31448 31.6269L7.31173 31.63L11.8767 36.8848L12.6381 37.7549L12.6408 37.7581L17.2104 32.4982L17.9618 31.6269L25.2762 23.2071L19.9479 17.074L12.6381 25.4886ZM15.6905 30.7485L14.9415 31.617L12.6381 34.2683L12.6354 34.2654L10.3372 31.6198L10.3399 31.6165L3.03436 23.2071L5.32807 20.5669L12.6381 28.9815L19.9479 20.5669L22.2416 23.2071L15.6905 30.7485Z" fill="#FFB800"/>
<path id="Vector_2" d="M7.31173 14.5568L11.8767 19.8115L12.6381 20.6815L12.6408 20.6848L17.2104 15.4248L17.9618 14.5535L25.2762 6.13352L19.9479 0L12.6381 8.4149L5.32807 0L0 6.13352L7.31448 14.5532L7.31173 14.5568ZM3.03436 6.13352L5.32807 3.49323L12.6381 11.9078L19.9479 3.49323L22.2416 6.13352L15.6902 13.6749L14.9404 14.5442L12.6378 17.1947L12.6352 17.1917L10.3369 14.5461L10.3397 14.5429L3.03436 6.13352Z" fill="#FFB800"/>
</g>
</svg>
